<?xml version="1.0" encoding="iso-8859-1"?>
<!-- Generator: Adobe Illustrator 19.0.0, SVG Export Plug-In . SVG Version: 6.00 Build 0)  -->
<svg version="1.1" id="Capa_1" xmlns="http://www.w3.org/2000/svg" xmlns:xlink="http://www.w3.org/1999/xlink" x="0px" y="0px"
	 viewBox="0 0 512.003 512.003" style="enable-background:new 0 0 512.003 512.003;" xml:space="preserve">
<circle style="fill:#00BAFF;" cx="256.001" cy="256" r="256"/>
<path style="fill:#008CC3;" d="M511.948,260.265L390.542,138.859l-0.736,55.138L256.001,60.193l-1.251,118.482l-54.026,15.232
	l53.302,53.302l-0.261,24.7l-133.051-133.05l0.307,92.288l-38.511,8.336l28.664,28.664l-26.463,23.707l29.217,29.217l-31.418,19.22
	l39.004,39.004l0.315,94.752C160.846,498.107,206.798,512,256.001,512C395.961,512,509.668,399.681,511.948,260.265z"/>
<path style="fill:#FFCF35;" d="M270.898,212.192c29.696,0,53.77-24.073,53.77-53.77v-14.897h-14.897
	c-18.054,0-34.018,8.908-43.77,22.558v-6.891l1.82-1.819c23.573-23.57,23.574-61.787,0.002-85.358l-11.822-11.822l-11.82,11.819
	c-23.573,23.57-23.574,61.787-0.002,85.358l1.822,1.822v6.892c-9.751-13.65-25.715-22.558-43.77-22.558h-14.897v14.897
	c0,29.696,24.073,53.77,53.77,53.77h4.897v22.558c-9.751-13.65-25.715-22.558-43.77-22.558h-14.897v14.897
	c0,29.696,24.073,53.77,53.77,53.77h4.897v22.558c-9.751-13.65-25.715-22.558-43.77-22.558h-14.897v14.897
	c0,29.696,24.073,53.77,53.77,53.77h4.897V511.79c3.319,0.128,6.649,0.213,10,0.213c3.351,0,6.681-0.085,10-0.213V349.525h4.897
	c29.696,0,53.77-24.073,53.77-53.77v-14.897h-14.897c-18.054,0-34.018,8.907-43.77,22.558v-22.558h4.897
	c29.696,0,53.77-24.074,53.77-53.77v-14.897h-14.897c-18.054,0-34.018,8.908-43.77,22.558v-22.558h4.897V212.192z"/>
<path style="fill:#FFB344;" d="M256.001,512c3.351,0,6.681-0.085,10-0.213V349.525h4.897c29.696,0,53.77-24.073,53.77-53.77v-14.897
	h-14.897c-18.054,0-34.018,8.907-43.77,22.558v-22.558h4.897c29.696,0,53.77-24.074,53.77-53.77v-14.897h-14.897
	c-18.054,0-34.018,8.908-43.77,22.558v-22.558h4.897c29.696,0,53.77-24.073,53.77-53.77v-14.897h-14.897
	c-18.054,0-34.018,8.908-43.77,22.558v-6.891l1.82-1.819c23.573-23.57,23.574-61.787,0.002-85.358l-11.822-11.821V512z"/>
<path style="fill:#FFECB3;" d="M131.649,250.433c21.798,0,39.469-17.671,39.469-39.469v-10.935h-10.935
	c-13.253,0-24.971,6.538-32.129,16.558v-5.058l1.336-1.336c17.304-17.301,17.304-45.354,0.001-62.657l-8.677-8.677l-8.677,8.675
	c-17.303,17.301-17.304,45.354-0.001,62.656l1.337,1.338v5.059c-7.158-10.02-18.876-16.558-32.129-16.558H70.31v10.935
	c0,21.798,17.671,39.469,39.469,39.469h3.594v16.558c-7.158-10.02-18.876-16.558-32.129-16.558H70.31v10.935
	c0,21.798,17.671,39.469,39.469,39.469h3.594v16.559c-7.158-10.02-18.876-16.558-32.129-16.558H70.309v10.935
	c0,21.798,17.671,39.469,39.469,39.469h3.594v117.37c4.782,3.214,9.678,6.271,14.681,9.164V351.241h3.594
	c21.798,0,39.469-17.671,39.469-39.469v-10.935h-10.935c-13.253,0-24.971,6.538-32.129,16.558v-16.558h3.594
	c21.798,0,39.469-17.671,39.469-39.469v-10.935H160.18c-13.253,0-24.971,6.538-32.129,16.558v-16.558L131.649,250.433
	L131.649,250.433z"/>
<path style="fill:#FFD863;" d="M401.477,250.433c21.798,0,39.469-17.671,39.469-39.469v-10.935H430.01
	c-13.253,0-24.971,6.539-32.129,16.558v-5.058l1.336-1.336c17.303-17.301,17.304-45.354,0.002-62.657l-8.678-8.677l-8.677,8.675
	c-17.303,17.301-17.304,45.354-0.001,62.656l1.337,1.337v5.059c-7.158-10.02-18.876-16.558-32.129-16.558h-10.935v10.935
	c0,21.798,17.671,39.469,39.469,39.469h3.594v16.558c-7.158-10.02-18.876-16.558-32.129-16.558h-10.935v10.935
	c0,21.798,17.671,39.469,39.469,39.469h3.594v16.558c-7.158-10.02-18.876-16.558-32.129-16.558h-10.935v10.935
	c0,21.798,17.671,39.469,39.469,39.469h3.594v126.968c5.004-2.871,9.896-5.915,14.681-9.106V351.241h3.594
	c21.798,0,39.469-17.671,39.469-39.469v-10.935h-10.935c-13.253,0-24.971,6.539-32.129,16.558v-16.558h3.594
	c21.798,0,39.469-17.671,39.469-39.469v-10.935h-10.935c-13.253,0-24.971,6.539-32.129,16.558v-16.558L401.477,250.433
	L401.477,250.433z"/>
<g>
</g>
<g>
</g>
<g>
</g>
<g>
</g>
<g>
</g>
<g>
</g>
<g>
</g>
<g>
</g>
<g>
</g>
<g>
</g>
<g>
</g>
<g>
</g>
<g>
</g>
<g>
</g>
<g>
</g>
</svg>
