<?xml version="1.0" encoding="iso-8859-1"?>
<!-- Generator: Adobe Illustrator 19.0.0, SVG Export Plug-In . SVG Version: 6.00 Build 0)  -->
<svg version="1.1" id="Layer_1" xmlns="http://www.w3.org/2000/svg" xmlns:xlink="http://www.w3.org/1999/xlink" x="0px" y="0px"
	 viewBox="0 0 512 512" style="enable-background:new 0 0 512 512;" xml:space="preserve">
<g>
	<path style="fill:#F7B239;" d="M124.358,245.818l0.013,0.013c-2.975,3.176-2.054,20.563-4.873,23.906
		c-4.168,4.942-11.981-4.064-15.792,1.225c-27.056-0.612-53.143-11.57-72.61-31.062c-20.066-20.04-31.087-47.097-31.087-74.995
		c0-5.677,0.459-11.404,1.378-17.094c33.69-5.498,67.979,5.549,92.114,29.684C111.933,195.954,122.75,220.318,124.358,245.818z"/>
	<path style="fill:#F7B239;" d="M124.358,296.13c-1.607,25.5-12.412,49.89-30.858,68.349c-20.053,20.04-47.122,31.075-75.021,31.075
		c-5.677,0-11.391-0.459-17.094-1.39c-5.498-33.69,5.562-67.954,29.71-92.089c19.466-19.492,45.553-30.45,72.61-31.062
		c4.267,5.919,18.103,0.262,22.809,5.74C128.857,279.48,121.911,293.514,124.358,296.13z"/>
	<path style="fill:#F7B239;" d="M336.816,135.118c10.231,10.243,18.114,22.285,23.37,35.348
		c-1.186-0.242-33.486,56.766-34.672,56.537c-15.32-2.883-26.227,17.859-42.096,17.859c-18.522,0-10.46-77.432-28.179-73.528
		c-7.794-15.014-11.915-31.751-11.915-48.806c0-5.677,0.459-11.404,1.39-17.094C278.404,99.936,312.681,110.983,336.816,135.118z"/>
</g>
<path style="fill:#F95428;" d="M356.627,169.765v0.013c-18.637,29.251-18.637,173.181,0,202.419
	c-15.32,2.896-31.011,4.375-46.893,4.375c-7.679,0-15.333-0.344-22.911-1.033c9.873-14.963-60.848-20.461-64.127-14.351
	c-9.835-3.597-19.415-7.794-28.715-12.552c-25.883-13.267-49.482-30.96-69.625-52.505c-7.36-7.871-14.262-16.252-20.653-25.117
	c0.804-0.013,1.595-0.026,2.398-0.026c-0.804,0-1.595-0.013-2.398-0.026c6.391-8.866,13.292-17.259,20.665-25.13
	c35.169-37.619,80.889-63.527,130.868-74.498c17.719-3.903,35.973-5.932,54.496-5.932
	C325.603,165.402,341.306,166.882,356.627,169.765z"/>
<path style="fill:#E54728;" d="M216.204,296.13c-7.36-7.871-14.262-16.252-20.653-25.117c0.804-0.013,1.595-0.026,2.398-0.026
	c-0.804,0-1.595-0.013-2.398-0.026c6.391-8.866,13.292-17.259,20.665-25.13c35.169-37.619,80.889-63.527,130.868-74.498
	c2.865-0.631,5.749-1.195,8.642-1.727c-15.036-2.773-30.433-4.205-45.993-4.205c-18.522,0-36.777,2.028-54.496,5.932
	c-49.98,10.971-95.699,36.879-130.868,74.498c-7.373,7.871-14.274,16.264-20.665,25.13c0.804,0.013,1.595,0.026,2.398,0.026
	c-0.804,0-1.595,0.013-2.398,0.026c6.391,8.866,13.292,17.247,20.653,25.117c20.142,21.546,43.742,39.239,69.625,52.505
	c9.299,4.758,18.88,8.955,28.715,12.552c3.278-6.11,7.475-11.774,12.489-16.787c5.937-5.937,12.777-10.705,20.17-14.202
	C241.26,320.266,228.122,308.879,216.204,296.13z"/>
<g>
	<path style="fill:#F7B239;" d="M297.794,324.22c2.947,18.05-1.097,36.356-10.971,51.319h-0.013
		c-2.641,4.031-5.728,7.82-9.197,11.289c-13.637,13.637-32.031,21.125-50.987,21.125c-3.865,0-7.743-0.306-11.621-0.944
		c-2.59-15.895,0.23-31.98,7.692-45.821c3.278-6.11,7.475-11.774,12.489-16.787c13.637-13.637,32.031-21.125,50.987-21.125
		C290.038,323.276,293.916,323.582,297.794,324.22z"/>
	<path style="fill:#F7B239;" d="M498.593,276.115c-2.028,0-3.865-0.816-5.192-2.143s-2.143-3.164-2.143-5.192
		c0-4.057,3.278-7.335,7.335-7.335h9.988c-22.77-28.702-51.192-51.766-83.07-68.119c-20.538-10.511-42.504-18.242-65.326-22.86
		c-1.186-0.242-2.373-0.472-3.559-0.702v0.013c-18.637,29.251-29.429,63.961-29.429,101.21s10.792,71.972,29.429,101.21
		c61.448-11.545,117.028-45.515,155.373-96.081L498.593,276.115L498.593,276.115z"/>
</g>
<path style="fill:#F2F2F2;" d="M403.443,232.195c21.431,0,38.792,17.374,38.792,38.792s-17.362,38.792-38.792,38.792
	c-21.418,0-38.78-17.374-38.78-38.792S382.025,232.195,403.443,232.195z"/>
<circle style="fill:#333333;" cx="403.448" cy="270.984" r="9.567"/>
<g>
</g>
<g>
</g>
<g>
</g>
<g>
</g>
<g>
</g>
<g>
</g>
<g>
</g>
<g>
</g>
<g>
</g>
<g>
</g>
<g>
</g>
<g>
</g>
<g>
</g>
<g>
</g>
<g>
</g>
</svg>
