<?xml version="1.0" encoding="iso-8859-1"?>
<!-- Generator: Adobe Illustrator 19.0.0, SVG Export Plug-In . SVG Version: 6.00 Build 0)  -->
<svg version="1.1" id="Capa_1" xmlns="http://www.w3.org/2000/svg" xmlns:xlink="http://www.w3.org/1999/xlink" x="0px" y="0px"
	 viewBox="0 0 511.842 511.842" style="enable-background:new 0 0 511.842 511.842;" xml:space="preserve">
<polygon style="fill:#656D78;" points="116.831,287.865 3.999,287.865 3.999,271.87 99.97,271.87 "/>
<g style="opacity:0.2;">
	<polygon style="fill:#FFFFFF;" points="107.967,279.867 3.999,279.867 3.999,271.87 99.97,271.87 	"/>
</g>
<polygon style="fill:#656D78;" points="395.011,287.865 507.843,287.865 507.843,271.87 411.873,271.87 "/>
<g style="opacity:0.2;">
	<polygon style="fill:#FFFFFF;" points="403.875,279.867 507.843,279.867 507.843,271.87 411.873,271.87 	"/>
</g>
<polygon style="fill:#9B5D5D;" points="507.843,287.865 395.011,287.865 255.921,419.824 116.831,287.865 3.999,287.865 
	3.999,491.661 507.843,491.661 "/>
<g style="opacity:0.2;">
	<polygon points="124.829,295.862 3.999,295.862 3.999,287.865 116.831,287.865 	"/>
</g>
<g style="opacity:0.2;">
	<polygon points="387.014,295.862 507.843,295.862 507.843,287.865 395.011,287.865 	"/>
</g>
<path style="fill:#EAC6BB;" d="M119.963,199.65c0-6.623,5.374-11.996,11.996-11.996h79.976v-15.995H103.968
	c-6.623,0-11.996-5.366-11.996-11.997c0-6.622,5.373-11.996,11.996-11.996h107.967v-15.995H87.973
	c-6.622,0-11.996-5.365-11.996-11.996c0-6.623,5.374-11.996,11.996-11.996h123.962V91.684H103.968
	c-6.623,0-11.996-5.365-11.996-11.996c0-6.623,5.373-11.996,11.996-11.996h107.967h37.441l-25.469-19.307
	c-7.294-4.218-9.794-13.527-5.584-20.838c4.21-7.278,13.535-9.794,20.829-5.576L331.6,79.688h-0.039
	c10.489,6.967,18.939,16.659,24.594,27.991h31.725v71.978h-36.23c-12.91,19.291-34.888,31.99-59.841,31.99h-79.874h-79.976
	C125.337,211.647,119.963,206.281,119.963,199.65z"/>
<g style="opacity:0.5;">
	<path style="fill:#FFFFFF;" d="M103.968,75.689h107.967h37.441l-10.551-7.997h-26.891H103.968c-6.623,0-11.996,5.373-11.996,11.996
		c0,1.409,0.289,2.745,0.734,3.999C94.361,79.039,98.751,75.689,103.968,75.689z"/>
	<path style="fill:#FFFFFF;" d="M356.155,107.679c-5.654-11.332-14.104-21.024-24.594-27.991h0.039l-92.448-57.717
		c-7.294-4.218-16.619-1.702-20.829,5.576c-2.132,3.702-2.53,7.912-1.468,11.716c0.335-1.27,0.78-2.523,1.468-3.718
		c4.21-7.279,13.535-9.794,20.829-5.576L331.6,87.685h-0.039c10.489,6.967,18.939,16.659,24.594,27.991h23.728v-7.997
		C379.883,107.679,356.155,107.679,356.155,107.679z"/>
</g>
<g style="opacity:0.2;">
	<path d="M291.809,203.649h-79.874h-79.976c-5.217,0-9.605-3.346-11.262-7.997c-0.445,1.258-0.734,2.589-0.734,3.999
		c0,6.631,5.374,11.996,11.996,11.996h79.976h79.874c24.953,0,46.931-12.699,59.841-31.99h28.233v-7.997H351.65
		C338.739,190.95,316.762,203.649,291.809,203.649z"/>
</g>
<g>
	<path style="fill:#FFCE54;" d="M257.577,209.651c-3.124,3.124-8.186,3.124-11.31,0s-3.124-8.186,0-11.31s13.84-8.778,16.964-5.654
		S260.701,206.527,257.577,209.651z"/>
	<path style="fill:#FFCE54;" d="M290.895,260.229c3.124,3.125,3.124,8.182,0,11.306s-8.185,3.124-11.309,0
		s-8.778-13.836-5.655-16.96C277.056,251.45,287.771,257.106,290.895,260.229z"/>
	<path style="fill:#FFCE54;" d="M227.93,283.866c0,4.421-3.577,7.997-7.997,7.997c-4.413,0-7.99-3.576-7.998-7.997
		c0-4.421,3.585-15.995,7.998-15.995C224.353,267.871,227.93,279.445,227.93,283.866z"/>
	<path style="fill:#FFCE54;" d="M259.92,347.846c4.421,0,7.997,3.578,7.997,7.998c0,4.421-3.576,7.99-7.989,7.99
		c-4.413,0.008-15.995-3.577-15.995-7.99C243.933,351.424,255.507,347.846,259.92,347.846z"/>
</g>
<g style="opacity:0.5;">
	<path style="fill:#FFFFFF;" d="M246.268,206.34c3.054-3.054,13.316-8.471,16.698-5.796c1.234-3.241,1.734-6.389,0.266-7.856
		c-3.124-3.124-13.84,2.53-16.964,5.654c-2.632,2.636-2.913,6.588-1.101,9.653C245.502,207.425,245.775,206.827,246.268,206.34z"/>
</g>
<g style="opacity:0.5;">
	<path style="fill:#FFFFFF;" d="M290.895,268.223c0.492,0.492,0.766,1.086,1.102,1.655c1.812-3.069,1.53-7.013-1.102-9.649
		c-3.124-3.123-13.839-8.778-16.964-5.654c-1.468,1.469-0.968,4.616,0.266,7.857C277.579,259.756,287.841,265.169,290.895,268.223z"
		/>
</g>
<g style="opacity:0.5;">
	<path style="fill:#FFFFFF;" d="M219.933,275.869c3.241,0,6.006,6.201,7.271,11.262c0.445-1,0.727-2.094,0.727-3.265
		c0-4.421-3.577-15.995-7.997-15.995c-4.413,0-7.998,11.574-7.998,15.995c0,1.171,0.281,2.265,0.734,3.265
		C213.926,282.07,216.699,275.869,219.933,275.869z"/>
</g>
<g style="opacity:0.5;">
	<path style="fill:#FFFFFF;" d="M247.127,359.843c3.757-2.382,9.841-3.999,12.793-3.999c2.929,0,5.381,1.648,6.771,3.999
		c0.71-1.195,1.226-2.507,1.226-3.999c0-4.42-3.576-7.998-7.997-7.998c-4.413,0-15.987,3.578-15.987,7.998
		C243.933,357.305,245.269,358.663,247.127,359.843z"/>
</g>
<rect x="387.881" y="99.931" style="fill:#656D78;" width="31.99" height="87.973"/>
<rect x="419.871" y="91.931" style="fill:#AC92EC;" width="87.973" height="103.97"/>
<g style="opacity:0.3;">
	<rect x="419.871" y="91.931" style="fill:#FFFFFF;" width="87.973" height="15.995"/>
</g>
<g style="opacity:0.2;">
	<rect x="419.871" y="179.901" width="87.973" height="15.995"/>
</g>
<g>
	<path style="fill:#3A3847;" d="M12.238,467.809c-2.21,0-4.037-1.788-4.037-3.998c0-2.211,1.749-3.999,3.952-3.999h0.085
		c2.203,0,3.999,1.788,3.999,3.999C16.237,466.021,14.442,467.809,12.238,467.809z"/>
	<path style="fill:#3A3847;" d="M12.238,419.824c-2.21,0-4.037-1.789-4.037-3.999s1.749-3.999,3.952-3.999h0.085
		c2.203,0,3.999,1.789,3.999,3.999S14.442,419.824,12.238,419.824z"/>
	<path style="fill:#3A3847;" d="M36.232,443.817c-2.21,0-4.038-1.788-4.038-3.998c0-2.211,1.75-3.999,3.952-3.999h0.086
		c2.202,0,3.999,1.788,3.999,3.999C40.231,442.028,38.434,443.817,36.232,443.817z"/>
	<path style="fill:#3A3847;" d="M60.224,467.809c-2.21,0-4.037-1.788-4.037-3.998c0-2.211,1.749-3.999,3.951-3.999h0.086
		c2.203,0,3.999,1.788,3.999,3.999C64.223,466.021,62.427,467.809,60.224,467.809z"/>
	<path style="fill:#3A3847;" d="M12.238,371.839c-2.21,0-4.037-1.788-4.037-3.999c0-2.21,1.749-3.998,3.952-3.998h0.085
		c2.203,0,3.999,1.788,3.999,3.998C16.237,370.051,14.442,371.839,12.238,371.839z"/>
	<path style="fill:#3A3847;" d="M36.232,395.831c-2.21,0-4.038-1.788-4.038-3.998c0-2.211,1.75-3.999,3.952-3.999h0.086
		c2.202,0,3.999,1.788,3.999,3.999C40.231,394.043,38.434,395.831,36.232,395.831z"/>
	<path style="fill:#3A3847;" d="M60.224,419.824c-2.21,0-4.037-1.789-4.037-3.999s1.749-3.999,3.951-3.999h0.086
		c2.203,0,3.999,1.789,3.999,3.999S62.427,419.824,60.224,419.824z"/>
	<path style="fill:#3A3847;" d="M84.217,443.817c-2.211,0-4.038-1.788-4.038-3.998c0-2.211,1.749-3.999,3.952-3.999h0.086
		c2.202,0,3.998,1.788,3.998,3.999C88.215,442.028,86.419,443.817,84.217,443.817z"/>
	<path style="fill:#3A3847;" d="M108.209,467.809c-2.21,0-4.038-1.788-4.038-3.998c0-2.211,1.75-3.999,3.952-3.999h0.086
		c2.202,0,3.999,1.788,3.999,3.999C112.208,466.021,110.411,467.809,108.209,467.809z"/>
	<path style="fill:#3A3847;" d="M12.238,323.854c-2.21,0-4.037-1.788-4.037-3.998c0-2.211,1.749-3.999,3.952-3.999h0.085
		c2.203,0,3.999,1.788,3.999,3.999C16.237,322.066,14.442,323.854,12.238,323.854z"/>
	<path style="fill:#3A3847;" d="M36.232,347.846c-2.21,0-4.038-1.788-4.038-3.998c0-2.211,1.75-3.999,3.952-3.999h0.086
		c2.202,0,3.999,1.788,3.999,3.999C40.231,346.058,38.434,347.846,36.232,347.846z"/>
	<path style="fill:#3A3847;" d="M60.224,371.839c-2.21,0-4.037-1.788-4.037-3.999c0-2.21,1.749-3.998,3.951-3.998h0.086
		c2.203,0,3.999,1.788,3.999,3.998C64.223,370.051,62.427,371.839,60.224,371.839z"/>
	<path style="fill:#3A3847;" d="M84.217,395.831c-2.211,0-4.038-1.788-4.038-3.998c0-2.211,1.749-3.999,3.952-3.999h0.086
		c2.202,0,3.998,1.788,3.998,3.999C88.215,394.043,86.419,395.831,84.217,395.831z"/>
	<path style="fill:#3A3847;" d="M108.209,419.824c-2.21,0-4.038-1.789-4.038-3.999s1.75-3.999,3.952-3.999h0.086
		c2.202,0,3.999,1.789,3.999,3.999S110.411,419.824,108.209,419.824z"/>
	<path style="fill:#3A3847;" d="M132.201,443.817c-2.21,0-4.037-1.788-4.037-3.998c0-2.211,1.749-3.999,3.951-3.999h0.086
		c2.203,0,3.999,1.788,3.999,3.999C136.2,442.028,134.404,443.817,132.201,443.817z"/>
	<path style="fill:#3A3847;" d="M156.194,467.809c-2.211,0-4.038-1.788-4.038-3.998c0-2.211,1.75-3.999,3.952-3.999h0.086
		c2.202,0,3.999,1.788,3.999,3.999C160.193,466.021,158.397,467.809,156.194,467.809z"/>
	<path style="fill:#3A3847;" d="M60.224,323.854c-2.21,0-4.037-1.788-4.037-3.998c0-2.211,1.749-3.999,3.951-3.999h0.086
		c2.203,0,3.999,1.788,3.999,3.999C64.223,322.066,62.427,323.854,60.224,323.854z"/>
	<path style="fill:#3A3847;" d="M84.217,347.846c-2.211,0-4.038-1.788-4.038-3.998c0-2.211,1.749-3.999,3.952-3.999h0.086
		c2.202,0,3.998,1.788,3.998,3.999C88.215,346.058,86.419,347.846,84.217,347.846z"/>
	<path style="fill:#3A3847;" d="M108.209,371.839c-2.21,0-4.038-1.788-4.038-3.999c0-2.21,1.75-3.998,3.952-3.998h0.086
		c2.202,0,3.999,1.788,3.999,3.998C112.208,370.051,110.411,371.839,108.209,371.839z"/>
	<path style="fill:#3A3847;" d="M132.201,395.831c-2.21,0-4.037-1.788-4.037-3.998c0-2.211,1.749-3.999,3.951-3.999h0.086
		c2.203,0,3.999,1.788,3.999,3.999C136.2,394.043,134.404,395.831,132.201,395.831z"/>
	<path style="fill:#3A3847;" d="M156.194,419.824c-2.211,0-4.038-1.789-4.038-3.999s1.75-3.999,3.952-3.999h0.086
		c2.202,0,3.999,1.789,3.999,3.999S158.397,419.824,156.194,419.824z"/>
	<path style="fill:#3A3847;" d="M180.187,443.817c-2.21,0-4.038-1.788-4.038-3.998c0-2.211,1.75-3.999,3.952-3.999h0.086
		c2.202,0,3.999,1.788,3.999,3.999C184.186,442.028,182.389,443.817,180.187,443.817z"/>
	<path style="fill:#3A3847;" d="M228.172,443.817c-2.21,0-4.038-1.788-4.038-3.998c0-2.211,1.75-3.999,3.952-3.999h0.086
		c2.202,0,3.999,1.788,3.999,3.999C232.171,442.028,230.374,443.817,228.172,443.817z"/>
	<path style="fill:#3A3847;" d="M276.157,443.817c-2.211,0-4.038-1.788-4.038-3.998c0-2.211,1.749-3.999,3.952-3.999h0.086
		c2.202,0,3.998,1.788,3.998,3.999C280.155,442.028,278.359,443.817,276.157,443.817z"/>
	<path style="fill:#3A3847;" d="M204.18,467.809c-2.211,0-4.038-1.788-4.038-3.998c0-2.211,1.749-3.999,3.952-3.999h0.086
		c2.202,0,3.998,1.788,3.998,3.999C208.178,466.021,206.382,467.809,204.18,467.809z"/>
	<path style="fill:#3A3847;" d="M108.209,323.854c-2.21,0-4.038-1.788-4.038-3.998c0-2.211,1.75-3.999,3.952-3.999h0.086
		c2.202,0,3.999,1.788,3.999,3.999C112.208,322.066,110.411,323.854,108.209,323.854z"/>
	<path style="fill:#3A3847;" d="M132.201,347.846c-2.21,0-4.037-1.788-4.037-3.998c0-2.211,1.749-3.999,3.951-3.999h0.086
		c2.203,0,3.999,1.788,3.999,3.999C136.2,346.058,134.404,347.846,132.201,347.846z"/>
	<path style="fill:#3A3847;" d="M156.194,371.839c-2.211,0-4.038-1.788-4.038-3.999c0-2.21,1.75-3.998,3.952-3.998h0.086
		c2.202,0,3.999,1.788,3.999,3.998C160.193,370.051,158.397,371.839,156.194,371.839z"/>
	<path style="fill:#3A3847;" d="M180.187,395.831c-2.21,0-4.038-1.788-4.038-3.998c0-2.211,1.75-3.999,3.952-3.999h0.086
		c2.202,0,3.999,1.788,3.999,3.999C184.186,394.043,182.389,395.831,180.187,395.831z"/>
	<path style="fill:#3A3847;" d="M204.18,419.824c-2.211,0-4.038-1.789-4.038-3.999s1.749-3.999,3.952-3.999h0.086
		c2.202,0,3.998,1.789,3.998,3.999S206.382,419.824,204.18,419.824z"/>
	<path style="fill:#3A3847;" d="M300.15,467.809c-2.21,0-4.037-1.788-4.037-3.998c0-2.211,1.749-3.999,3.951-3.999h0.086
		c2.203,0,3.999,1.788,3.999,3.999C304.149,466.021,302.353,467.809,300.15,467.809z"/>
	<path style="fill:#3A3847;" d="M252.164,467.809c-2.21,0-4.037-1.788-4.037-3.998c0-2.211,1.749-3.999,3.951-3.999h0.086
		c2.203,0,3.999,1.788,3.999,3.999C256.163,466.021,254.367,467.809,252.164,467.809z"/>
	<path style="fill:#3A3847;" d="M300.15,419.824c-2.21,0-4.037-1.789-4.037-3.999s1.749-3.999,3.951-3.999h0.086
		c2.203,0,3.999,1.789,3.999,3.999S302.353,419.824,300.15,419.824z"/>
	<path style="fill:#3A3847;" d="M324.142,443.817c-2.21,0-4.037-1.788-4.037-3.998c0-2.211,1.749-3.999,3.952-3.999h0.085
		c2.203,0,3.999,1.788,3.999,3.999C328.141,442.028,326.345,443.817,324.142,443.817z"/>
	<path style="fill:#3A3847;" d="M348.135,467.809c-2.21,0-4.038-1.788-4.038-3.998c0-2.211,1.75-3.999,3.952-3.999h0.086
		c2.202,0,3.999,1.788,3.999,3.999C352.134,466.021,350.337,467.809,348.135,467.809z"/>
	<path style="fill:#3A3847;" d="M324.142,395.831c-2.21,0-4.037-1.788-4.037-3.998c0-2.211,1.749-3.999,3.952-3.999h0.085
		c2.203,0,3.999,1.788,3.999,3.999C328.141,394.043,326.345,395.831,324.142,395.831z"/>
	<path style="fill:#3A3847;" d="M348.135,419.824c-2.21,0-4.038-1.789-4.038-3.999s1.75-3.999,3.952-3.999h0.086
		c2.202,0,3.999,1.789,3.999,3.999S350.337,419.824,348.135,419.824z"/>
	<path style="fill:#3A3847;" d="M372.128,443.817c-2.211,0-4.038-1.788-4.038-3.998c0-2.211,1.749-3.999,3.952-3.999h0.086
		c2.202,0,3.998,1.788,3.998,3.999C376.126,442.028,374.33,443.817,372.128,443.817z"/>
	<path style="fill:#3A3847;" d="M396.12,467.809c-2.211,0-4.038-1.788-4.038-3.998c0-2.211,1.749-3.999,3.952-3.999h0.086
		c2.202,0,3.998,1.788,3.998,3.999C400.118,466.021,398.322,467.809,396.12,467.809z"/>
	<path style="fill:#3A3847;" d="M348.135,371.839c-2.21,0-4.038-1.788-4.038-3.999c0-2.21,1.75-3.998,3.952-3.998h0.086
		c2.202,0,3.999,1.788,3.999,3.998C352.134,370.051,350.337,371.839,348.135,371.839z"/>
	<path style="fill:#3A3847;" d="M372.128,395.831c-2.211,0-4.038-1.788-4.038-3.998c0-2.211,1.749-3.999,3.952-3.999h0.086
		c2.202,0,3.998,1.788,3.998,3.999C376.126,394.043,374.33,395.831,372.128,395.831z"/>
	<path style="fill:#3A3847;" d="M396.12,419.824c-2.211,0-4.038-1.789-4.038-3.999s1.749-3.999,3.952-3.999h0.086
		c2.202,0,3.998,1.789,3.998,3.999S398.322,419.824,396.12,419.824z"/>
	<path style="fill:#3A3847;" d="M420.112,443.817c-2.21,0-4.037-1.788-4.037-3.998c0-2.211,1.749-3.999,3.951-3.999h0.086
		c2.203,0,3.999,1.788,3.999,3.999C424.111,442.028,422.316,443.817,420.112,443.817z"/>
	<path style="fill:#3A3847;" d="M444.105,467.809c-2.21,0-4.037-1.788-4.037-3.998c0-2.211,1.749-3.999,3.951-3.999h0.086
		c2.203,0,3.999,1.788,3.999,3.999C448.104,466.021,446.308,467.809,444.105,467.809z"/>
	<path style="fill:#3A3847;" d="M372.128,347.846c-2.211,0-4.038-1.788-4.038-3.998c0-2.211,1.749-3.999,3.952-3.999h0.086
		c2.202,0,3.998,1.788,3.998,3.999C376.126,346.058,374.33,347.846,372.128,347.846z"/>
	<path style="fill:#3A3847;" d="M396.12,371.839c-2.211,0-4.038-1.788-4.038-3.999c0-2.21,1.749-3.998,3.952-3.998h0.086
		c2.202,0,3.998,1.788,3.998,3.998C400.118,370.051,398.322,371.839,396.12,371.839z"/>
	<path style="fill:#3A3847;" d="M420.112,395.831c-2.21,0-4.037-1.788-4.037-3.998c0-2.211,1.749-3.999,3.951-3.999h0.086
		c2.203,0,3.999,1.788,3.999,3.999C424.111,394.043,422.316,395.831,420.112,395.831z"/>
	<path style="fill:#3A3847;" d="M444.105,419.824c-2.21,0-4.037-1.789-4.037-3.999s1.749-3.999,3.951-3.999h0.086
		c2.203,0,3.999,1.789,3.999,3.999S446.308,419.824,444.105,419.824z"/>
	<path style="fill:#3A3847;" d="M468.098,443.817c-2.21,0-4.038-1.788-4.038-3.998c0-2.211,1.75-3.999,3.952-3.999h0.086
		c2.202,0,3.999,1.788,3.999,3.999C472.097,442.028,470.3,443.817,468.098,443.817z"/>
	<path style="fill:#3A3847;" d="M492.09,467.809c-2.21,0-4.038-1.788-4.038-3.998c0-2.211,1.75-3.999,3.952-3.999h0.086
		c2.202,0,3.999,1.788,3.999,3.999C496.089,466.021,494.292,467.809,492.09,467.809z"/>
	<path style="fill:#3A3847;" d="M396.12,323.854c-2.211,0-4.038-1.788-4.038-3.998c0-2.211,1.749-3.999,3.952-3.999h0.086
		c2.202,0,3.998,1.788,3.998,3.999C400.118,322.066,398.322,323.854,396.12,323.854z"/>
	<path style="fill:#3A3847;" d="M420.112,347.846c-2.21,0-4.037-1.788-4.037-3.998c0-2.211,1.749-3.999,3.951-3.999h0.086
		c2.203,0,3.999,1.788,3.999,3.999C424.111,346.058,422.316,347.846,420.112,347.846z"/>
	<path style="fill:#3A3847;" d="M444.105,371.839c-2.21,0-4.037-1.788-4.037-3.999c0-2.21,1.749-3.998,3.951-3.998h0.086
		c2.203,0,3.999,1.788,3.999,3.998C448.104,370.051,446.308,371.839,444.105,371.839z"/>
	<path style="fill:#3A3847;" d="M468.098,395.831c-2.21,0-4.038-1.788-4.038-3.998c0-2.211,1.75-3.999,3.952-3.999h0.086
		c2.202,0,3.999,1.788,3.999,3.999C472.097,394.043,470.3,395.831,468.098,395.831z"/>
	<path style="fill:#3A3847;" d="M492.09,419.824c-2.21,0-4.038-1.789-4.038-3.999s1.75-3.999,3.952-3.999h0.086
		c2.202,0,3.999,1.789,3.999,3.999S494.292,419.824,492.09,419.824z"/>
	<path style="fill:#3A3847;" d="M444.105,323.854c-2.21,0-4.037-1.788-4.037-3.998c0-2.211,1.749-3.999,3.951-3.999h0.086
		c2.203,0,3.999,1.788,3.999,3.999C448.104,322.066,446.308,323.854,444.105,323.854z"/>
	<path style="fill:#3A3847;" d="M468.098,347.846c-2.21,0-4.038-1.788-4.038-3.998c0-2.211,1.75-3.999,3.952-3.999h0.086
		c2.202,0,3.999,1.788,3.999,3.999C472.097,346.058,470.3,347.846,468.098,347.846z"/>
	<path style="fill:#3A3847;" d="M492.09,371.839c-2.21,0-4.038-1.788-4.038-3.999c0-2.21,1.75-3.998,3.952-3.998h0.086
		c2.202,0,3.999,1.788,3.999,3.998C496.089,370.051,494.292,371.839,492.09,371.839z"/>
	<path style="fill:#3A3847;" d="M492.09,323.854c-2.21,0-4.038-1.788-4.038-3.998c0-2.211,1.75-3.999,3.952-3.999h0.086
		c2.202,0,3.999,1.788,3.999,3.999C496.089,322.066,494.292,323.854,492.09,323.854z"/>
	<path style="fill:#3A3847;" d="M93.8,291.863H3.999c-2.21,0-3.999-1.788-3.999-3.998c0-2.211,1.789-3.999,3.999-3.999H93.8
		c2.21,0,3.998,1.788,3.998,3.999C97.798,290.075,96.01,291.863,93.8,291.863z"/>
	<path style="fill:#3A3847;" d="M75.977,275.869H3.999c-2.21,0-3.999-1.789-3.999-3.999s1.789-3.999,3.999-3.999h71.978
		c2.211,0,3.999,1.789,3.999,3.999S78.188,275.869,75.977,275.869z"/>
	<path style="fill:#3A3847;" d="M19.994,291.856c-2.21,0-3.999-1.788-3.999-3.998v-15.995c0-2.21,1.789-3.999,3.999-3.999
		s3.999,1.789,3.999,3.999v15.995C23.993,290.067,22.204,291.856,19.994,291.856z"/>
	<path style="fill:#3A3847;" d="M51.984,291.856c-2.21,0-3.999-1.788-3.999-3.998v-15.995c0-2.21,1.789-3.999,3.999-3.999
		s3.999,1.789,3.999,3.999v15.995C55.984,290.067,54.194,291.856,51.984,291.856z"/>
	<path style="fill:#3A3847;" d="M507.843,291.863h-89.8c-2.21,0-3.999-1.788-3.999-3.998c0-2.211,1.789-3.999,3.999-3.999h89.8
		c2.211,0,3.999,1.788,3.999,3.999C511.842,290.075,510.054,291.863,507.843,291.863z"/>
	<path style="fill:#3A3847;" d="M507.843,275.869h-71.978c-2.21,0-3.999-1.789-3.999-3.999s1.789-3.999,3.999-3.999h71.978
		c2.211,0,3.999,1.789,3.999,3.999S510.054,275.869,507.843,275.869z"/>
	<path style="fill:#3A3847;" d="M491.849,291.856c-2.211,0-3.999-1.788-3.999-3.998v-15.995c0-2.21,1.788-3.999,3.999-3.999
		c2.21,0,3.998,1.789,3.998,3.999v15.995C495.847,290.067,494.059,291.856,491.849,291.856z"/>
	<path style="fill:#3A3847;" d="M459.859,291.856c-2.211,0-3.999-1.788-3.999-3.998v-15.995c0-2.21,1.788-3.999,3.999-3.999
		c2.21,0,3.998,1.789,3.998,3.999v15.995C463.857,290.067,462.068,291.856,459.859,291.856z"/>
	<path style="fill:#3A3847;" d="M211.935,135.916H87.973c-2.21,0-3.998-1.788-3.998-3.999c0-2.21,1.788-3.998,3.998-3.998h123.962
		c2.21,0,3.999,1.788,3.999,3.998C215.934,134.128,214.145,135.916,211.935,135.916z"/>
	<path style="fill:#3A3847;" d="M211.935,111.924H87.973c-2.21,0-3.998-1.789-3.998-3.999s1.788-3.999,3.998-3.999h123.962
		c2.21,0,3.999,1.789,3.999,3.999S214.145,111.924,211.935,111.924z"/>
	<path style="fill:#3A3847;" d="M87.973,135.916c-8.817,0-15.994-7.174-15.994-15.995s7.177-15.995,15.994-15.995
		c2.211,0,3.999,1.789,3.999,3.999s-1.788,3.999-3.999,3.999c-4.412,0-7.997,3.588-7.997,7.997s3.585,7.998,7.997,7.998
		c2.211,0,3.999,1.788,3.999,3.998C91.972,134.128,90.184,135.916,87.973,135.916z"/>
	<path style="fill:#3A3847;" d="M330.305,84.744c-0.742,0-1.492-0.203-2.164-0.633l-91.144-58.528
		c-5.193-3.007-12.09-1.16-15.214,4.214c-3.085,5.369-1.234,12.27,4.132,15.374l36.418,27.577c1.766,1.336,2.109,3.843,0.773,5.604
		c-1.344,1.762-3.851,2.094-5.6,0.77l-36.005-27.304c-8.763-5.03-11.926-16.823-6.646-26.016c5.334-9.196,17.12-12.348,26.305-7.049
		l91.308,58.627c1.859,1.194,2.397,3.666,1.203,5.525C332.905,84.096,331.616,84.744,330.305,84.744z"/>
	<path style="fill:#3A3847;" d="M211.935,95.929H103.968c-2.21,0-3.998-1.789-3.998-3.999s1.788-3.999,3.998-3.999h107.967
		c2.21,0,3.999,1.789,3.999,3.999S214.145,95.929,211.935,95.929z"/>
	<path style="fill:#3A3847;" d="M227.93,71.936H103.968c-2.21,0-3.998-1.788-3.998-3.998c0-2.211,1.788-3.999,3.998-3.999H227.93
		c2.21,0,3.999,1.788,3.999,3.999C231.929,70.148,230.14,71.936,227.93,71.936z"/>
	<path style="fill:#3A3847;" d="M291.817,215.892c-2.21,0-3.999-1.789-3.999-3.999s1.789-3.999,3.999-3.999
		c26.21,0,49.883-14.487,61.777-37.805c1-1.976,3.413-2.737,5.382-1.745c1.968,1.003,2.749,3.413,1.741,5.377
		C347.447,199.733,321.05,215.892,291.817,215.892z"/>
	<path style="fill:#3A3847;" d="M361.154,119.952c-1.624,0-3.155-1-3.749-2.616c-5.256-14.246-15.542-25.984-28.952-33.053
		c-1.952-1.03-2.702-3.448-1.671-5.4c1.039-1.96,3.476-2.687,5.404-1.675c15.159,7.989,26.781,21.259,32.717,37.363
		c0.766,2.069-0.289,4.369-2.367,5.135C362.083,119.874,361.615,119.952,361.154,119.952z"/>
	<path style="fill:#3A3847;" d="M103.968,95.929c-8.817,0-15.995-7.174-15.995-15.995s7.178-15.995,15.995-15.995
		c2.211,0,3.999,1.788,3.999,3.999c0,2.21-1.788,3.998-3.999,3.998c-4.412,0-7.997,3.589-7.997,7.998
		c0,4.408,3.585,7.997,7.997,7.997c2.211,0,3.999,1.789,3.999,3.999S106.179,95.929,103.968,95.929z"/>
	<path style="fill:#3A3847;" d="M211.935,175.903H103.968c-2.21,0-3.998-1.788-3.998-3.998c0-2.211,1.788-3.999,3.998-3.999h107.967
		c2.21,0,3.999,1.788,3.999,3.999C215.934,174.115,214.145,175.903,211.935,175.903z"/>
	<path style="fill:#3A3847;" d="M211.935,151.911H103.968c-2.21,0-3.998-1.789-3.998-3.999s1.788-3.999,3.998-3.999h107.967
		c2.21,0,3.999,1.789,3.999,3.999S214.145,151.911,211.935,151.911z"/>
	<path style="fill:#3A3847;" d="M103.968,175.903c-8.817,0-15.995-7.173-15.995-15.995c0-8.821,7.178-15.995,15.995-15.995
		c2.211,0,3.999,1.789,3.999,3.999s-1.788,3.999-3.999,3.999c-4.412,0-7.997,3.589-7.997,7.997c0,4.409,3.585,7.998,7.997,7.998
		c2.211,0,3.999,1.788,3.999,3.999C107.967,174.115,106.179,175.903,103.968,175.903z"/>
	<path style="fill:#3A3847;" d="M235.927,215.892H131.959c-2.21,0-3.998-1.789-3.998-3.999s1.788-3.999,3.998-3.999h103.968
		c2.211,0,3.999,1.789,3.999,3.999S238.138,215.892,235.927,215.892z"/>
	<path style="fill:#3A3847;" d="M211.935,191.899h-79.976c-2.21,0-3.998-1.788-3.998-3.999c0-2.21,1.788-3.998,3.998-3.998h79.976
		c2.21,0,3.999,1.788,3.999,3.998C215.934,190.11,214.145,191.899,211.935,191.899z"/>
	<path style="fill:#3A3847;" d="M131.959,215.892c-8.817,0-15.994-7.174-15.994-15.995c0-8.822,7.177-15.995,15.994-15.995
		c2.211,0,3.999,1.788,3.999,3.998c0,2.211-1.788,3.999-3.999,3.999c-4.412,0-7.997,3.589-7.997,7.998
		c0,4.408,3.585,7.997,7.997,7.997c2.211,0,3.999,1.789,3.999,3.999S134.17,215.892,131.959,215.892z"/>
	<path style="fill:#3A3847;" d="M379.883,111.924h-22.321c-2.21,0-3.999-1.789-3.999-3.999s1.789-3.999,3.999-3.999h22.321
		c2.21,0,3.999,1.789,3.999,3.999S382.093,111.924,379.883,111.924z"/>
	<path style="fill:#3A3847;" d="M379.883,183.901h-27.476c-2.211,0-3.999-1.789-3.999-3.999s1.788-3.999,3.999-3.999h27.476
		c2.21,0,3.999,1.789,3.999,3.999S382.093,183.901,379.883,183.901z"/>
	<path style="fill:#3A3847;" d="M419.87,199.897c-2.21,0-3.998-1.789-3.998-3.999V91.93c0-2.21,1.788-3.999,3.998-3.999
		c2.211,0,3.999,1.789,3.999,3.999v103.968C423.869,198.108,422.081,199.897,419.87,199.897z"/>
	<path style="fill:#3A3847;" d="M507.843,199.897H419.87c-2.21,0-3.998-1.789-3.998-3.999s1.788-3.999,3.998-3.999h87.973
		c2.211,0,3.999,1.789,3.999,3.999S510.054,199.897,507.843,199.897z"/>
	<path style="fill:#3A3847;" d="M507.843,95.929H419.87c-2.21,0-3.998-1.789-3.998-3.999s1.788-3.999,3.998-3.999h87.973
		c2.211,0,3.999,1.789,3.999,3.999S510.054,95.929,507.843,95.929z"/>
	<path style="fill:#3A3847;" d="M411.873,103.926H387.88c-2.21,0-3.998-1.788-3.998-3.999c0-2.21,1.788-3.998,3.998-3.998h23.993
		c2.21,0,3.999,1.788,3.999,3.998C415.872,102.138,414.083,103.926,411.873,103.926z"/>
	<path style="fill:#3A3847;" d="M387.88,191.899c-2.21,0-3.998-1.788-3.998-3.999V99.927c0-2.21,1.788-3.998,3.998-3.998
		c2.211,0,3.999,1.788,3.999,3.998V187.9C391.879,190.11,390.091,191.899,387.88,191.899z"/>
	<path style="fill:#3A3847;" d="M413.544,191.899H387.88c-2.21,0-3.998-1.788-3.998-3.999c0-2.21,1.788-3.998,3.998-3.998h25.664
		c2.211,0,3.999,1.788,3.999,3.998C417.543,190.11,415.755,191.899,413.544,191.899z"/>
	<path style="fill:#3A3847;" d="M395.878,120.03h-7.998c-2.21,0-3.998-1.788-3.998-3.999c0-2.21,1.788-3.998,3.998-3.998h7.998
		c2.21,0,3.998,1.788,3.998,3.998C399.876,118.242,398.088,120.03,395.878,120.03z"/>
	<path style="fill:#3A3847;" d="M395.878,144.023h-7.998c-2.21,0-3.998-1.788-3.998-3.998c0-2.211,1.788-3.999,3.998-3.999h7.998
		c2.21,0,3.998,1.788,3.998,3.999C399.876,142.234,398.088,144.023,395.878,144.023z"/>
	<path style="fill:#3A3847;" d="M395.878,176.013h-7.998c-2.21,0-3.998-1.788-3.998-3.998c0-2.211,1.788-3.999,3.998-3.999h7.998
		c2.21,0,3.998,1.788,3.998,3.999C399.876,174.225,398.088,176.013,395.878,176.013z"/>
	<path style="fill:#3A3847;" d="M291.817,215.892h-23.899c-2.21,0-3.998-1.789-3.998-3.999s1.788-3.999,3.998-3.999h23.899
		c2.21,0,3.999,1.789,3.999,3.999S294.026,215.892,291.817,215.892z"/>
	<path style="fill:#3A3847;" d="M255.921,423.822c-0.992,0-1.976-0.367-2.749-1.101L97.221,274.76
		c-1.609-1.516-1.672-4.046-0.148-5.646c1.515-1.609,4.053-1.656,5.646-0.148l155.952,147.961c1.608,1.515,1.671,4.046,0.147,5.646
		C258.038,423.4,256.976,423.822,255.921,423.822z"/>
	<path style="fill:#3A3847;" d="M255.921,423.822c-1.055,0-2.116-0.414-2.897-1.249c-1.522-1.601-1.46-4.132,0.148-5.646
		l155.952-147.962c1.593-1.508,4.131-1.477,5.646,0.148c1.522,1.601,1.461,4.131-0.148,5.646L258.671,422.722
		C257.898,423.455,256.913,423.822,255.921,423.822z"/>
	<path style="fill:#3A3847;" d="M507.843,495.66H3.999c-2.21,0-3.999-1.789-3.999-3.999s1.789-3.999,3.999-3.999h503.844
		c2.211,0,3.999,1.789,3.999,3.999S510.054,495.66,507.843,495.66z"/>
	<path style="fill:#3A3847;" d="M251.922,215.993c-3.202,0-6.217-1.25-8.481-3.515c-4.678-4.679-4.678-12.285,0-16.964
		c3.155-3.155,11.363-7.739,17.042-7.739c2.89,0,4.623,1.136,5.576,2.085c5.842,5.838-2.358,19.326-5.654,22.618
		C258.14,214.743,255.124,215.993,251.922,215.993z M260.162,195.839c-3.499,0.363-9.208,3.476-11.067,5.33
		c-1.562,1.559-1.562,4.097,0,5.654c1.516,1.508,4.14,1.508,5.655,0C257.062,204.512,259.959,198.451,260.162,195.839z"/>
	<path style="fill:#3A3847;" d="M285.24,277.876c-3.202,0-6.217-1.25-8.481-3.515c-3.296-3.296-11.497-16.776-5.654-22.614
		c0.952-0.948,2.686-2.085,5.576-2.085c5.678,0,13.886,4.584,17.041,7.739c4.679,4.679,4.679,12.282,0,16.96
		C291.457,276.626,288.442,277.876,285.24,277.876z M276.681,257.659c-0.156,1.23,3.155,8.47,5.732,11.048
		c1.516,1.515,4.139,1.515,5.654,0c1.563-1.563,1.563-4.093,0-5.65C286.084,261.076,279.711,257.659,276.681,257.659z"/>
	<path style="fill:#3A3847;" d="M219.933,295.862c-6.6,0-11.981-5.381-11.997-11.988c0-4.663,3.741-19.998,11.997-19.998
		c8.255,0,11.996,15.335,11.996,19.99C231.929,290.482,226.547,295.862,219.933,295.862z M219.933,272.205
		c-1.711,1.922-3.999,8.357-3.999,11.661c0.008,2.202,1.796,3.999,3.999,3.999c2.202,0,3.998-1.797,3.998-3.999
		C223.931,280.563,221.65,274.119,219.933,272.205z"/>
	<path style="fill:#3A3847;" d="M259.928,367.832h-0.016c-4.655,0-19.979-3.732-19.979-11.988c0-8.255,15.331-11.996,19.986-11.996
		c6.615,0,11.996,5.381,11.996,11.996C271.916,362.451,266.535,367.832,259.928,367.832z M248.268,355.844
		c1.921,1.711,8.349,3.991,11.645,3.991c2.21,0,4.007-1.789,4.007-3.991s-1.797-3.999-3.999-3.999
		C256.616,351.845,250.189,354.125,248.268,355.844z"/>
</g>
<g style="opacity:0.2;">
	<rect x="379.881" y="107.681" width="7.997" height="72.22"/>
</g>
<g style="opacity:0.2;">
	<rect x="411.871" y="98.351" width="7.997" height="90.88"/>
</g>
<g style="opacity:0.2;">
	<rect x="387.881" y="99.931" style="fill:#FFFFFF;" width="23.993" height="7.998"/>
</g>
<g style="opacity:0.2;">
	<rect x="387.881" y="179.901" width="23.993" height="7.997"/>
</g>
<g>
</g>
<g>
</g>
<g>
</g>
<g>
</g>
<g>
</g>
<g>
</g>
<g>
</g>
<g>
</g>
<g>
</g>
<g>
</g>
<g>
</g>
<g>
</g>
<g>
</g>
<g>
</g>
<g>
</g>
</svg>
