<?xml version="1.0" encoding="iso-8859-1"?>
<!-- Generator: Adobe Illustrator 19.0.0, SVG Export Plug-In . SVG Version: 6.00 Build 0)  -->
<svg version="1.1" id="Capa_1" xmlns="http://www.w3.org/2000/svg" xmlns:xlink="http://www.w3.org/1999/xlink" x="0px" y="0px"
	 viewBox="0 0 512 512" style="enable-background:new 0 0 512 512;" xml:space="preserve">
<circle style="fill:#00BAFF;" cx="256" cy="256" r="256"/>
<g>
	<path style="fill:#008CC3;" d="M505.343,197.768l0.005,0.004C505.364,197.77,505.368,197.768,505.343,197.768z"/>
	<path style="fill:#008CC3;" d="M512,256c0-20.03-2.305-39.521-6.656-58.227c-1.147,0.179-84.427,5.726-136.394,9.177
		l-65.483-65.483L77,215.827L211.073,349.9l-4.747,9.646l137.123,137.123C441.77,460.934,512,366.671,512,256z"/>
	<path style="fill:#008CC3;" d="M102.511,351.989l159.93,159.93c27.104-0.669,53.156-5.564,77.539-14.029L162.091,320
		L102.511,351.989z"/>
</g>
<path style="fill:#8C6239;" d="M349.909,320c0,51.864-42.044,93.909-93.909,93.909S162.091,371.864,162.091,320H8.065
	C36.484,430.415,136.714,512,256,512s219.516-81.585,247.935-192H349.909z"/>
<path style="fill:#754C24;" d="M349.909,320c0,51.864-42.044,93.909-93.909,93.909V511l0.989,0.989
	c118.849-0.45,218.605-81.881,246.945-191.989H349.909z"/>
<path style="fill:#8C6239;" d="M256,512c0.331,0,0.659-0.009,0.989-0.011L256,511V512z"/>
<rect x="47" y="345" style="fill:#A67C52;" width="42.37" height="14"/>
<rect x="422.63" y="345" style="fill:#8C6239;" width="42.37" height="14"/>
<rect x="93.95" y="388.33" style="fill:#A67C52;" width="42.37" height="14"/>
<g>
	<rect x="375.68" y="388.33" style="fill:#8C6239;" width="42.37" height="14"/>
	<rect x="328.73" y="438" style="fill:#8C6239;" width="42.37" height="14"/>
</g>
<rect x="234.32" y="438" style="fill:#A67C52;" width="42.37" height="14"/>
<rect x="256" y="438" style="fill:#8C6239;" width="20.683" height="14"/>
<rect x="140.91" y="438" style="fill:#A67C52;" width="42.37" height="14"/>
<path style="fill:#FFCF35;" d="M217.025,266.662h-9.168c-7.363,0-13.333-5.969-13.333-13.333v-9.168h9.168
	c7.363,0,13.333,5.969,13.333,13.333V266.662z"/>
<path style="fill:#FFB344;" d="M287.934,388.333h-9.168c-7.363,0-13.333-5.969-13.333-13.333v-9.168h9.168
	c7.363,0,13.333,5.969,13.333,13.333V388.333z"/>
<path style="fill:#FFCF35;" d="M206.326,359.545l-3.299-8.553c-2.65-6.87,0.772-14.588,7.642-17.238l8.554-3.299l3.299,8.553
	c2.65,6.87-0.772,14.588-7.642,17.238L206.326,359.545z"/>
<g>
	<path style="fill:#FFB344;" d="M307.218,362.879l-3.299-8.553c-2.65-6.87,0.772-14.588,7.642-17.238l8.554-3.299l3.299,8.553
		c2.65,6.87-0.772,14.588-7.642,17.238L307.218,362.879z"/>
	<path style="fill:#FFB344;" d="M276.326,316.545l-3.299-8.553c-2.65-6.87,0.772-14.588,7.642-17.238l8.554-3.299l3.299,8.553
		c2.65,6.87-0.772,14.588-7.642,17.238L276.326,316.545z"/>
</g>
<path style="fill:#FFD8B1;" d="M479.287,130.728l-42.924,19.885c-15.022,8.684-32.962,10.185-49.22,4.104l-97.711-36.534
	c-18.025-6.079-37.482-5.091-54.796,2.778L78.609,188.778c-7.197,4.172-10.106,13.259-6.619,20.849
	c3.059,6.661,10.247,10.452,17.475,9.239c0.104-0.018,0.206-0.033,0.31-0.047l121.399-15.66c0.154-0.92,0.353-1.839,0.595-2.755
	c3.799-14.37,17.34-23.862,32.092-22.502l70.086,6.297c4.434,0.396,7.702,4.314,7.304,8.746c-0.396,4.434-4.332,7.804-8.746,7.305
	l-70.086-6.297c-6.923-0.588-13.285,3.82-15.069,10.568c-0.972,3.683-0.453,7.526,1.464,10.818c1.917,3.294,5.002,5.644,8.685,6.616
	l90.04,23.78c10.113,2.668,20.724,2.396,30.685-0.798l147.117-47.169C499.808,173.974,490.944,151.461,479.287,130.728z"/>
<path style="fill:#E8C2A3;" d="M479.287,130.728l-42.924,19.885c-15.022,8.684-32.962,10.185-49.22,4.104l-97.711-36.534
	c-10.885-3.671-22.289-4.747-33.431-3.304v64.114l57.948,5.207c4.434,0.396,7.702,4.314,7.304,8.746
	c-0.396,4.434-4.332,7.804-8.746,7.305L256,195.173v31.667l71.541,18.895c10.113,2.668,20.724,2.396,30.685-0.798l147.117-47.169
	C499.808,173.974,490.944,151.461,479.287,130.728z"/>
<g>
</g>
<g>
</g>
<g>
</g>
<g>
</g>
<g>
</g>
<g>
</g>
<g>
</g>
<g>
</g>
<g>
</g>
<g>
</g>
<g>
</g>
<g>
</g>
<g>
</g>
<g>
</g>
<g>
</g>
</svg>
